<?xml version="1.0" encoding="UTF-8"?>
<svg width="563px" height="201px" viewBox="0 0 563 201" version="1.1" xmlns="http://www.w3.org/2000/svg">
    <title>sweet</title>
    <defs>
        <!-- Rectangle background gradients -->
        <linearGradient id="rect-grad1" x1="0%" y1="0%" x2="100%" y2="100%">
            <stop offset="0%" stop-color="#a1c4fd">
                <animate attributeName="stop-color" values="#a1c4fd;#fbc2eb;#a1c4fd" dur="60s" repeatCount="indefinite"/>
            </stop>
            <stop offset="100%" stop-color="#fbc2eb">
                <animate attributeName="stop-color" values="#fbc2eb;#a1c4fd;#fbc2eb" dur="60s" repeatCount="indefinite"/>
            </stop>
            <animate attributeName="x1" values="0%;100%;0%" dur="60s" repeatCount="indefinite"/>
            <animate attributeName="y1" values="0%;100%;0%" dur="60s" repeatCount="indefinite"/>
        </linearGradient>
        <radialGradient id="rect-grad2" cx="50%" cy="50%" r="80%">
            <stop offset="0%" stop-color="#fbc2eb">
                <animate attributeName="stop-color" values="#fbc2eb;#a6c1ee;#fbc2eb" dur="60s" repeatCount="indefinite"/>
            </stop>
            <stop offset="100%" stop-color="#a1c4fd">
                <animate attributeName="stop-color" values="#a1c4fd;#fbefff;#a1c4fd" dur="60s" repeatCount="indefinite"/>
            </stop>
            <animate attributeName="cx" values="50%;80%;20%;50%" dur="60s" repeatCount="indefinite"/>
            <animate attributeName="cy" values="50%;20%;80%;50%" dur="60s" repeatCount="indefinite"/>
        </radialGradient>
        <linearGradient id="rect-multi" x1="0%" y1="0%" x2="100%" y2="0%">
            <stop offset="0%" stop-color="#a6c1ee" stop-opacity="0.7"/>
            <stop offset="100%" stop-color="#fbc2eb" stop-opacity="0.7"/>
            <animate attributeName="x1" values="0%;100%;0%" dur="60s" repeatCount="indefinite"/>
            <animate attributeName="x2" values="100%;0%;100%" dur="60s" repeatCount="indefinite"/>
        </linearGradient>

        <!-- Letter gradients -->
        <linearGradient id="s-grad" x1="0%" y1="0%" x2="100%" y2="100%">
            <stop offset="0%" stop-color="#ffecd2">
                <animate attributeName="stop-color" values="#ffecd2;#fcb69f;#ffecd2" dur="10s" repeatCount="indefinite"/>
            </stop>
            <stop offset="100%" stop-color="#fcb69f">
                <animate attributeName="stop-color" values="#fcb69f;#a1c4fd;#fcb69f" dur="12s" repeatCount="indefinite"/>
            </stop>
        </linearGradient>
        <linearGradient id="w-grad" x1="100%" y1="0%" x2="0%" y2="100%">
            <stop offset="0%" stop-color="#a1c4fd">
                <animate attributeName="stop-color" values="#a1c4fd;#c2e9fb;#a1c4fd" dur="14s" repeatCount="indefinite"/>
            </stop>
            <stop offset="100%" stop-color="#c2e9fb">
                <animate attributeName="stop-color" values="#c2e9fb;#fbc2eb;#c2e9fb" dur="16s" repeatCount="indefinite"/>
            </stop>
        </linearGradient>
        <linearGradient id="e1-grad" x1="0%" y1="100%" x2="100%" y2="0%">
            <stop offset="0%" stop-color="#fbc2eb">
                <animate attributeName="stop-color" values="#fbc2eb;#a6c1ee;#fbc2eb" dur="13s" repeatCount="indefinite"/>
            </stop>
            <stop offset="100%" stop-color="#a6c1ee">
                <animate attributeName="stop-color" values="#a6c1ee;#fdc2e9;#a6c1ee" dur="15s" repeatCount="indefinite"/>
            </stop>
        </linearGradient>
        <linearGradient id="e2-grad" x1="100%" y1="100%" x2="0%" y2="0%">
            <stop offset="0%" stop-color="#fcb69f">
                <animate attributeName="stop-color" values="#fcb69f;#ffecd2;#fcb69f" dur="11s" repeatCount="indefinite"/>
            </stop>
            <stop offset="100%" stop-color="#ffecd2">
                <animate attributeName="stop-color" values="#ffecd2;#a1c4fd;#ffecd2" dur="13s" repeatCount="indefinite"/>
            </stop>
        </linearGradient>
        <linearGradient id="t-grad" x1="0%" y1="0%" x2="100%" y2="100%">
            <stop offset="0%" stop-color="#a6c1ee">
                <animate attributeName="stop-color" values="#a6c1ee;#fbc2eb;#a6c1ee" dur="17s" repeatCount="indefinite"/>
            </stop>
            <stop offset="100%" stop-color="#fbc2eb">
                <animate attributeName="stop-color" values="#fbc2eb;#a1c4fd;#fbc2eb" dur="19s" repeatCount="indefinite"/>
            </stop>
        </linearGradient>
    </defs>
    <g id="sweet" stroke="none" stroke-width="1" fill="none" fill-rule="evenodd">
        <!-- Rectangle with multiple animated gradients using opacity blending -->
        <rect id="Rectangle" stroke="url(#rect-stroke-anim)" stroke-width="3" x="16.8" y="17.826" width="529" height="165" rx="16" fill="url(#rect-grad1)"/>
        <!-- Animated border gradient for rectangle -->
        <linearGradient id="rect-stroke-anim" x1="0%" y1="0%" x2="100%" y2="0%">
            <stop offset="0%" stop-color="#707ED8">
                <animate attributeName="stop-color" values="#707ED8;#a1c4fd;#fbc2eb;#707ED8" dur="18s" repeatCount="indefinite"/>
            </stop>
            <stop offset="50%" stop-color="#a1c4fd">
                <animate attributeName="stop-color" values="#a1c4fd;#fbc2eb;#707ED8;#a1c4fd" dur="22s" repeatCount="indefinite"/>
            </stop>
            <stop offset="100%" stop-color="#fbc2eb">
                <animate attributeName="stop-color" values="#fbc2eb;#707ED8;#a1c4fd;#fbc2eb" dur="26s" repeatCount="indefinite"/>
            </stop>
            <animate attributeName="x1" values="0%;100%;0%" dur="40s" repeatCount="indefinite"/>
            <animate attributeName="x2" values="100%;0%;100%" dur="40s" repeatCount="indefinite"/>
        </linearGradient>
        <rect x="16.8" y="17.826" width="529" height="165" rx="16" fill="url(#rect-grad2)" opacity="0.6"/>
        <rect x="16.8" y="17.826" width="529" height="165" rx="16" fill="url(#rect-multi)" opacity="0.4"/>
        <!-- Undulating, slowly rotating gradients for dreamy ambience -->
        <g style="mix-blend-mode: lighten;">
            <ellipse cx="281.3" cy="100.3" rx="260" ry="70" fill="url(#undulate1)" opacity="0.25">
                <animateTransform attributeName="transform" attributeType="XML" type="rotate" from="0 281.3 100.3" to="360 281.3 100.3" dur="60s" repeatCount="indefinite"/>
            </ellipse>
            <ellipse cx="281.3" cy="100.3" rx="200" ry="50" fill="url(#undulate2)" opacity="0.18">
                <animateTransform attributeName="transform" attributeType="XML" type="rotate" from="360 281.3 100.3" to="0 281.3 100.3" dur="90s" repeatCount="indefinite"/>
            </ellipse>
            <ellipse cx="281.3" cy="100.3" rx="150" ry="40" fill="url(#undulate3)" opacity="0.15">
                <animateTransform attributeName="transform" attributeType="XML" type="rotate" from="0 281.3 100.3" to="360 281.3 100.3" dur="120s" repeatCount="indefinite"/>
            </ellipse>
        </g>
        <!-- Undulating gradients definitions -->
        <radialGradient id="undulate1" cx="50%" cy="50%" r="80%">
            <stop offset="0%" stop-color="#fbefff" stop-opacity="0.8">
                <animate attributeName="stop-color" values="#fbefff;#eaf3ff;#fbefff" dur="18s" repeatCount="indefinite"/>
            </stop>
            <stop offset="100%" stop-color="#a1c4fd" stop-opacity="0.1">
                <animate attributeName="stop-color" values="#a1c4fd;#fbc2eb;#a1c4fd" dur="22s" repeatCount="indefinite"/>
            </stop>
        </radialGradient>
        <radialGradient id="undulate2" cx="60%" cy="40%" r="70%">
            <stop offset="0%" stop-color="#fbc2eb" stop-opacity="0.7">
                <animate attributeName="stop-color" values="#fbc2eb;#a6c1ee;#fbc2eb" dur="25s" repeatCount="indefinite"/>
            </stop>
            <stop offset="100%" stop-color="#f7faff" stop-opacity="0.1">
                <animate attributeName="stop-color" values="#f7faff;#fdc2e9;#f7faff" dur="30s" repeatCount="indefinite"/>
            </stop>
        </radialGradient>
        <radialGradient id="undulate3" cx="40%" cy="60%" r="60%">
            <stop offset="0%" stop-color="#a6c1ee" stop-opacity="0.6">
                <animate attributeName="stop-color" values="#a6c1ee;#fbc2eb;#a6c1ee" dur="28s" repeatCount="indefinite"/>
            </stop>
            <stop offset="100%" stop-color="#fbefff" stop-opacity="0.1">
                <animate attributeName="stop-color" values="#fbefff;#a1c4fd;#fbefff" dur="32s" repeatCount="indefinite"/>
            </stop>
        </radialGradient>
        <g id="sweet-copy" transform="translate(41.106915, 36.713302)" fill-rule="nonzero">
            <path d="M0,99.8349206 C0,95.6359788 1.32085876,92.2497354 3.96257627,89.6761905 C6.60429379,87.1026455 9.55082486,85.815873 12.8021695,85.815873 C15.9180414,85.815873 18.3226817,86.2899471 20.0160904,87.2380952 C21.7094991,88.1862434 23.3013032,90.0148148 24.7915028,92.7238095 C25.604339,94.2137566 27.3316158,95.6359788 29.9733333,96.9904762 C32.6150508,98.3449735 35.6293183,99.0222222 39.0161356,99.0222222 C43.0803164,99.0222222 45.1124068,97.8708995 45.1124068,95.568254 C45.1124068,93.8074074 44.0286252,92.3851852 41.8610621,91.3015873 C39.6934991,90.2179894 36.9840452,89.1005291 33.7327006,87.9492063 C30.4813559,86.7978836 26.9590659,85.4772487 23.1658305,83.9873016 C19.3725951,82.4973545 15.8503051,80.4656085 12.5989605,77.8920635 C9.34761582,75.3185185 6.63816196,72.0338624 4.47059887,68.0380952 C2.30303578,64.042328 1.21925424,58.9968254 1.21925424,52.9015873 C1.21925424,48.5671958 2.26916761,44.4359788 4.36899435,40.5079365 C6.46882109,36.5798942 9.41535217,33.1597884 13.2085876,30.247619 C17.001823,27.3354497 21.5740264,25.0328042 26.9251977,23.3396825 C32.2763691,21.6465608 38.2032994,20.8 44.7059887,20.8 C55.9502222,20.8 64.6204746,23.2042328 70.7167458,28.0126984 C76.8130169,32.821164 79.8611525,39.0857143 79.8611525,46.8063492 C79.8611525,48.973545 79.4547345,50.8021164 78.6418983,52.2920635 C77.8290621,53.7820106 76.7452806,55.0010582 75.3905537,55.9492063 C74.0358267,56.8973545 72.4778908,57.5746032 70.7167458,57.9809524 C68.9556008,58.3873016 67.1944557,58.5904762 65.4333107,58.5904762 C61.775548,58.5904762 59.2693032,58.0486772 57.9145763,56.9650794 C56.5598493,55.8814815 55.6115405,54.8656085 55.0696497,53.9174603 C53.5794501,51.2084656 52.0553823,49.4137566 50.4974463,48.5333333 C48.9395104,47.6529101 47.2122335,47.2126984 45.3156158,47.2126984 C41.7933258,47.2126984 40.0321808,48.7026455 40.0321808,51.6825397 C40.0321808,53.3079365 41.0820942,54.594709 43.1819209,55.5428571 C45.2817476,56.4910053 47.889597,57.4391534 51.0054689,58.3873016 C54.1213409,59.3354497 57.5420264,60.4867725 61.2675254,61.8412698 C64.9930245,63.1957672 68.41371,65.0582011 71.5295819,67.4285714 C74.6454539,69.7989418 77.2533032,72.8804233 79.3531299,76.6730159 C81.4529567,80.4656085 82.5028701,85.2740741 82.5028701,91.0984127 C82.5028701,96.3809524 81.4529567,101.155556 79.3531299,105.422222 C77.2533032,109.688889 74.272904,113.312169 70.4119322,116.292063 C66.5509605,119.271958 61.8771525,121.574603 56.3905085,123.2 C50.9038644,124.825397 44.8414614,125.638095 38.2032994,125.638095 C32.648919,125.638095 27.5348249,124.994709 22.8610169,123.707937 C18.187209,122.421164 14.1568964,120.626455 10.7700791,118.32381 C7.38326177,116.021164 4.74154426,113.278307 2.84492655,110.095238 C0.948308851,106.912169 0,103.492063 0,99.8349206 Z" id="s" fill="url(#s-grad)" stroke="#fff" stroke-width="3"/>
            <path d="M129.444158,125.231746 C124.973559,125.231746 120.807774,123.674074 116.946802,120.55873 C113.085831,117.443386 109.597409,113.346032 106.481537,108.266667 C103.365665,103.187302 100.588475,97.4306878 98.1499661,90.9968254 C95.7114576,84.562963 93.6793672,78.0952381 92.0536949,71.5936508 C90.4280226,65.0920635 89.1749002,58.8613757 88.2943277,52.9015873 C87.4137552,46.9417989 86.9734689,41.794709 86.9734689,37.4603175 C86.9734689,32.042328 88.2943277,28.215873 90.9360452,25.9809524 C93.5777627,23.7460317 96.8629755,22.6285714 100.791684,22.6285714 C102.959247,22.6285714 105.025205,22.7978836 106.989559,23.1365079 C108.953913,23.4751323 110.715058,24.152381 112.272994,25.168254 C113.83093,26.184127 115.185657,27.6063492 116.337175,29.4349206 C117.488693,31.2634921 118.335397,33.6677249 118.877288,36.647619 C119.419179,39.3566138 120.096542,43.4201058 120.909379,48.8380952 C121.722215,54.2560847 122.636655,59.7079365 123.652701,65.1936508 C124.668746,70.6793651 125.786395,75.4539683 127.00565,79.5174603 C128.224904,83.5809524 129.444158,85.6126984 130.663412,85.6126984 C131.476249,85.6126984 132.322953,84.0888889 133.203525,81.0412698 C134.084098,77.9936508 134.96467,74.1671958 135.845243,69.5619048 C136.725815,64.9566138 137.57252,59.9111111 138.385356,54.4253968 C139.198192,48.9396825 139.875556,43.826455 140.417446,39.0857143 C140.823864,36.1058201 141.501228,33.8031746 142.449537,32.1777778 C143.533318,29.6042328 145.192859,27.7756614 147.428158,26.6920635 C149.663458,25.6084656 152.135834,25.0666667 154.845288,25.0666667 C158.773996,25.0666667 162.262418,26.0486772 165.310554,28.0126984 C168.358689,29.9767196 170.153702,33.1259259 170.695593,37.4603175 L170.695593,38.0698413 C171.102011,41.0497354 171.779375,45.2486772 172.727684,50.6666667 C173.675992,56.0846561 174.725906,61.4687831 175.877424,66.8190476 C177.028942,72.1693122 178.282064,76.8084656 179.636791,80.7365079 C180.991518,84.6645503 182.278508,86.6285714 183.497763,86.6285714 C184.310599,86.6285714 185.157303,85.1047619 186.037876,82.0571429 C186.918448,79.0095238 187.799021,75.1492063 188.679593,70.4761905 C189.560166,65.8031746 190.40687,60.6560847 191.219706,55.0349206 C192.032542,49.4137566 192.845379,44.0296296 193.658215,38.8825397 C194.606524,32.6518519 196.503141,28.3851852 199.348068,26.0825397 C202.192994,23.7798942 205.715284,22.6285714 209.914938,22.6285714 C213.843646,22.6285714 217.196595,23.9830688 219.973785,26.6920635 C222.750976,29.4010582 224.139571,32.7195767 224.139571,36.647619 C224.139571,39.6275132 223.767021,43.9280423 223.021921,49.5492063 C222.276821,55.1703704 221.125303,61.231746 219.567367,67.7333333 C218.009431,74.2349206 216.112814,80.9058201 213.877514,87.7460317 C211.642215,94.5862434 209.000497,100.783069 205.952362,106.336508 C202.904226,111.889947 199.517409,116.427513 195.79191,119.949206 C192.066411,123.470899 187.968362,125.231746 183.497763,125.231746 C180.652836,125.231746 177.943382,124.520635 175.369401,123.098413 C172.79542,121.67619 170.356911,119.678307 168.053876,117.104762 C165.75084,114.531217 163.583277,111.551323 161.551186,108.165079 C159.519096,104.778836 157.622478,101.189418 155.861333,97.3968254 C154.100188,101.189418 152.237439,104.778836 150.273085,108.165079 C148.308731,111.551323 146.208904,114.531217 143.973605,117.104762 C141.738305,119.678307 139.435269,121.67619 137.064497,123.098413 C134.693725,124.520635 132.153612,125.231746 129.444158,125.231746 Z" id="w" fill="url(#w-grad)" stroke="#fff" stroke-width="3"/>
            <path d="M271.487277,21.0031746 C276.770712,21.0031746 281.546124,21.7820106 285.813514,23.3396825 C290.080904,24.8973545 293.772535,27.1322751 296.888407,30.0444444 C300.004279,32.9566138 302.408919,36.410582 304.102328,40.4063492 C305.795736,44.4021164 306.642441,48.8380952 306.642441,53.7142857 C306.642441,58.8613757 305.660264,63.6021164 303.69591,67.9365079 C301.731556,72.2708995 299.157574,76.0296296 295.973966,79.2126984 C292.790358,82.3957672 289.132595,84.8677249 285.000678,86.6285714 C280.868761,88.389418 276.635239,89.2698413 272.300113,89.2698413 C269.726132,89.2698413 267.118282,88.7619048 264.476565,87.7460317 C261.834847,86.7301587 259.56568,84.5968254 257.669062,81.3460317 C258.346426,86.357672 260.378516,90.3873016 263.765333,93.4349206 C267.152151,96.4825397 271.216331,98.0063492 275.957876,98.0063492 C278.938275,98.0063492 281.44452,97.5661376 283.47661,96.6857143 C285.508701,95.805291 287.337582,94.8571429 288.963254,93.8412698 C290.588927,92.8253968 292.214599,91.9111111 293.840271,91.0984127 C295.465944,90.2857143 297.294825,89.8793651 299.326915,89.8793651 C302.442787,89.8793651 304.881296,91.1661376 306.642441,93.7396825 C308.403586,96.3132275 309.216422,100.10582 309.080949,105.11746 C308.945476,109.316402 307.827827,112.736508 305.728,115.377778 C303.628173,118.019048 300.884851,120.084656 297.498034,121.574603 C294.111217,123.06455 290.284113,124.080423 286.016723,124.622222 C281.749333,125.164021 277.448075,125.434921 273.112949,125.434921 C265.526478,125.434921 258.786712,124.249735 252.89365,121.879365 C247.000588,119.508995 242.055834,116.122751 238.05939,111.720635 C234.062945,107.318519 231.01481,102.035979 228.914983,95.8730159 C226.815156,89.7100529 225.765243,82.768254 225.765243,75.047619 C225.765243,66.9206349 226.882893,59.5386243 229.118192,52.9015873 C231.353492,46.2645503 234.469363,40.5756614 238.465808,35.8349206 C242.462252,31.0941799 247.271533,27.437037 252.89365,24.8634921 C258.515766,22.2899471 264.713642,21.0031746 271.487277,21.0031746 Z M271.893695,68.7492063 C273.383895,68.7492063 274.637017,68.3767196 275.653062,67.631746 C276.669107,66.8867725 277.481944,65.9724868 278.091571,64.8888889 C278.701198,63.805291 279.141484,62.7216931 279.412429,61.6380952 C279.683375,60.5544974 279.818847,59.6063492 279.818847,58.7936508 C279.818847,57.7100529 279.683375,56.5248677 279.412429,55.2380952 C279.141484,53.9513228 278.66733,52.7661376 277.989966,51.6825397 C277.312603,50.5989418 276.330426,49.6846561 275.043435,48.9396825 C273.756444,48.194709 272.16464,47.8222222 270.268023,47.8222222 C267.964987,47.8222222 265.763556,48.7365079 263.663729,50.5650794 C261.563902,52.3936508 260.513989,55.2719577 260.513989,59.2 C260.513989,65.5661376 264.307224,68.7492063 271.893695,68.7492063 Z" id="e" fill="url(#e1-grad)" stroke="#fff" stroke-width="3"/>
            <path d="M363.744181,21.0031746 C369.027616,21.0031746 373.803028,21.7820106 378.070418,23.3396825 C382.337808,24.8973545 386.029439,27.1322751 389.145311,30.0444444 C392.261183,32.9566138 394.665823,36.410582 396.359232,40.4063492 C398.05264,44.4021164 398.899345,48.8380952 398.899345,53.7142857 C398.899345,58.8613757 397.917168,63.6021164 395.952814,67.9365079 C393.98846,72.2708995 391.414478,76.0296296 388.23087,79.2126984 C385.047262,82.3957672 381.389499,84.8677249 377.257582,86.6285714 C373.125665,88.389418 368.892143,89.2698413 364.557017,89.2698413 C361.983036,89.2698413 359.375186,88.7619048 356.733469,87.7460317 C354.091751,86.7301587 351.822584,84.5968254 349.925966,81.3460317 C350.60333,86.357672 352.63542,90.3873016 356.022237,93.4349206 C359.409055,96.4825397 363.473235,98.0063492 368.21478,98.0063492 C371.195179,98.0063492 373.701424,97.5661376 375.733514,96.6857143 C377.765605,95.805291 379.594486,94.8571429 381.220158,93.8412698 C382.845831,92.8253968 384.471503,91.9111111 386.097175,91.0984127 C387.722847,90.2857143 389.551729,89.8793651 391.583819,89.8793651 C394.699691,89.8793651 397.1382,91.1661376 398.899345,93.7396825 C400.66049,96.3132275 401.473326,100.10582 401.337853,105.11746 C401.20238,109.316402 400.084731,112.736508 397.984904,115.377778 C395.885077,118.019048 393.141755,120.084656 389.754938,121.574603 C386.368121,123.06455 382.541017,124.080423 378.273627,124.622222 C374.006237,125.164021 369.704979,125.434921 365.369853,125.434921 C357.783382,125.434921 351.043616,124.249735 345.150554,121.879365 C339.257492,119.508995 334.312738,116.122751 330.316294,111.720635 C326.319849,107.318519 323.271714,102.035979 321.171887,95.8730159 C319.07206,89.7100529 318.022147,82.768254 318.022147,75.047619 C318.022147,66.9206349 319.139797,59.5386243 321.375096,52.9015873 C323.610395,46.2645503 326.726267,40.5756614 330.722712,35.8349206 C334.719156,31.0941799 339.528437,27.437037 345.150554,24.8634921 C350.77267,22.2899471 356.970546,21.0031746 363.744181,21.0031746 Z M364.150599,68.7492063 C365.640798,68.7492063 366.893921,68.3767196 367.909966,67.631746 C368.926011,66.8867725 369.738847,65.9724868 370.348475,64.8888889 C370.958102,63.805291 371.398388,62.7216931 371.669333,61.6380952 C371.940279,60.5544974 372.075751,59.6063492 372.075751,58.7936508 C372.075751,57.7100529 371.940279,56.5248677 371.669333,55.2380952 C371.398388,53.9513228 370.924234,52.7661376 370.24687,51.6825397 C369.569507,50.5989418 368.58733,49.6846561 367.300339,48.9396825 C366.013348,48.194709 364.421544,47.8222222 362.524927,47.8222222 C360.221891,47.8222222 358.02046,48.7365079 355.920633,50.5650794 C353.820806,52.3936508 352.770893,55.2719577 352.770893,59.2 C352.770893,65.5661376 356.564128,68.7492063 364.150599,68.7492063 Z" id="e" fill="url(#e2-grad)" stroke="#fff" stroke-width="3"/>
            <path d="M448.685559,125.434921 C441.505507,125.434921 435.815653,124.182011 431.616,121.67619 C427.416347,119.17037 424.19887,115.750265 421.963571,111.415873 C419.728271,107.081481 418.305808,101.866667 417.696181,95.7714286 C417.086554,89.6761905 416.78174,83.1068783 416.78174,76.0634921 C416.78174,71.3227513 416.883345,67.1915344 417.086554,63.6698413 C417.289763,60.1481481 417.459104,57.2359788 417.594576,54.9333333 C417.730049,52.6306878 417.662313,50.8698413 417.391367,49.6507937 C417.120422,48.431746 416.443058,47.8222222 415.359277,47.8222222 C411.836987,47.8222222 408.99206,46.7047619 406.824497,44.4698413 C404.656934,42.2349206 403.573153,39.0179894 403.573153,34.8190476 C403.573153,32.7873016 403.708625,30.9248677 403.979571,29.231746 C404.250516,27.5386243 404.860143,26.1502646 405.808452,25.0666667 C406.756761,23.9830688 408.111488,23.1365079 409.872633,22.5269841 C411.633778,21.9174603 413.936814,21.6126984 416.78174,21.6126984 C417.594576,21.6126984 418.136467,21.2402116 418.407412,20.4952381 C418.678358,19.7502646 418.813831,18.9037037 418.813831,17.9555556 C418.813831,17.0074074 418.779962,16.0253968 418.712226,15.0095238 C418.64449,13.9936508 418.610621,13.2148148 418.610621,12.6730159 C418.746094,7.11957672 420.439503,6.26455026 423.690847,3.75873016 C426.942192,1.25291005 431.141846,0 436.289808,0 C442.521552,0 446.958282,1.48994709 449.6,4.46984127 C452.241718,7.44973545 453.562576,8.81269841 453.562576,14.9079365 C453.562576,17.210582 453.765785,18.9037037 454.172203,19.9873016 C454.578621,21.0708995 456.136557,21.6126984 458.846011,21.6126984 C466.8389,21.6126984 470.835345,25.6761905 470.835345,33.8031746 C470.835345,38.8148148 469.548354,42.5396825 466.974373,44.9777778 C464.400392,47.415873 460.268475,48.3640212 454.578621,47.8222222 C454.307676,47.8222222 454.036731,48.5671958 453.765785,50.0571429 C453.49484,51.5470899 453.291631,53.4095238 453.156158,55.6444444 C453.020685,57.8793651 452.919081,60.3513228 452.851345,63.0603175 C452.783608,65.7693122 452.74974,68.2751323 452.74974,70.5777778 C452.74974,73.1513228 452.74974,75.9619048 452.74974,79.0095238 C452.74974,82.0571429 452.952949,84.9015873 453.359367,87.5428571 C453.765785,90.184127 454.443149,92.3851852 455.391458,94.1460317 C456.339766,95.9068783 457.694493,96.7873016 459.455638,96.7873016 C460.403947,96.7873016 461.928015,96.5164021 464.027842,95.9746032 C466.127669,95.4328042 468.227495,95.1280423 470.327322,95.0603175 C472.427149,94.9925926 474.323766,95.3989418 476.017175,96.2793651 C477.710584,97.1597884 478.692761,99.0222222 478.963706,101.866667 C479.234652,105.25291 478.963706,108.402116 478.15087,111.314286 C477.338034,114.226455 475.74623,116.732275 473.375458,118.831746 C471.004685,120.931217 467.821077,122.556614 463.824633,123.707937 C459.828188,124.859259 454.781831,125.434921 448.685559,125.434921 Z" id="t" fill="url(#t-grad)" stroke="#fff" stroke-width="3"/>
        </g>
    </g>
</svg>
